<?xml version="1.0" encoding="UTF-8"?>
<svg width="22px" height="22px" viewBox="0 0 22 22" version="1.1" xmlns="http://www.w3.org/2000/svg" xmlns:xlink="http://www.w3.org/1999/xlink">
    <title>ic_view_map</title>
    <g id="Page-1" stroke="none" stroke-width="1" fill="none" fill-rule="evenodd">
        <g id="scr_1" transform="translate(-155.000000, -241.000000)">
            <g id="1" transform="translate(130.000000, 223.000000)">
                <g id="ic_view_map" transform="translate(25.000000, 18.000000)">
                    <path d="M19.8305556,1.65 L19.6643333,1.68116667 L14.1166667,3.83166667 L7.88333333,1.65 L2.024,3.62388889 C1.80583333,3.69661111 1.65,3.88361111 1.65,4.12255556 L1.65,19.8305556 C1.65,20.1214444 1.87855556,20.35 2.16944444,20.35 L2.33566667,20.3188333 L7.88333333,18.1683333 L14.1166667,20.35 L19.976,18.3761111 C20.1941667,18.3033889 20.35,18.1163889 20.35,17.8774444 L20.35,2.16944444 C20.35,1.87855556 20.1214444,1.65 19.8305556,1.65 Z M14.1166667,18.2722222 L7.88333333,16.0801667 L7.88333333,3.72777778 L14.1166667,5.91983333 L14.1166667,18.2722222 Z" id="Shape" fill="#94979B" fill-rule="nonzero"></path>
                    <polygon id="Path" points="0 0 22 0 22 22 0 22"></polygon>
                </g>
            </g>
        </g>
    </g>
</svg>