<?xml version="1.0" encoding="UTF-8"?>
<svg width="917px" height="61px" viewBox="0 0 917 61" version="1.1" xmlns="http://www.w3.org/2000/svg" xmlns:xlink="http://www.w3.org/1999/xlink">
    <title>1</title>
    <defs>
        <rect id="path-1" x="0" y="0" width="917" height="60"></rect>
        <filter x="-0.1%" y="-0.8%" width="100.1%" height="103.3%" filterUnits="objectBoundingBox" id="filter-2">
            <feOffset dx="0" dy="1" in="SourceAlpha" result="shadowOffsetOuter1"></feOffset>
            <feColorMatrix values="0 0 0 0 0   0 0 0 0 0   0 0 0 0 0  0 0 0 0.0599807518 0" type="matrix" in="shadowOffsetOuter1"></feColorMatrix>
        </filter>
    </defs>
    <g id="Page-1" stroke="none" stroke-width="1" fill="none" fill-rule="evenodd">
        <g id="scr_1" transform="translate(-130.000000, -223.000000)">
            <g id="1" transform="translate(130.000000, 223.000000)">
                <g id="Rectangle">
                    <use fill="black" fill-opacity="1" filter="url(#filter-2)" xlink:href="#path-1"></use>
                    <use fill="#FFFFFF" fill-rule="evenodd" xlink:href="#path-1"></use>
                </g>
                <g id="ic_view_map" transform="translate(25.000000, 18.000000)">
                    <path d="M19.8305556,1.65 L19.6643333,1.68116667 L14.1166667,3.83166667 L7.88333333,1.65 L2.024,3.62388889 C1.80583333,3.69661111 1.65,3.88361111 1.65,4.12255556 L1.65,19.8305556 C1.65,20.1214444 1.87855556,20.35 2.16944444,20.35 L2.33566667,20.3188333 L7.88333333,18.1683333 L14.1166667,20.35 L19.976,18.3761111 C20.1941667,18.3033889 20.35,18.1163889 20.35,17.8774444 L20.35,2.16944444 C20.35,1.87855556 20.1214444,1.65 19.8305556,1.65 Z M14.1166667,18.2722222 L7.88333333,16.0801667 L7.88333333,3.72777778 L14.1166667,5.91983333 L14.1166667,18.2722222 Z" id="Shape" fill="#94979B" fill-rule="nonzero"></path>
                    <polygon id="Path" points="0 0 22 0 22 22 0 22"></polygon>
                </g>
                <path d="M884,32 L887.673469,28 M891.673469,32 L888,28" id="Combined-Shape" stroke="#1B253A" stroke-width="1.5" stroke-linecap="round" stroke-linejoin="round"></path>
                <g id="id" transform="translate(75.000000, 20.000000)" fill="#52575A" font-family="Helvetica" font-size="16" font-weight="normal">
                    <text id="34516---SAN-ANTONIO,">
                        <tspan x="0" y="15">34516 - SAN ANTONIO, TX</tspan>
                    </text>
                </g>
                <text id="4-Emty-Loads" font-family="Helvetica" font-size="16" font-weight="normal" fill="#52575A">
                    <tspan x="422" y="35">4 Emty Loads</tspan>
                </text>
                <text id="4-Possible-Matches" font-family="Helvetica" font-size="16" font-weight="normal" fill="#52575A">
                    <tspan x="610" y="35">4 Possible Matches</tspan>
                </text>
            </g>
        </g>
    </g>
</svg>