<?xml version="1.0" encoding="UTF-8"?>
<svg width="18px" height="18px" viewBox="0 0 18 18" version="1.1" xmlns="http://www.w3.org/2000/svg" xmlns:xlink="http://www.w3.org/1999/xlink">
    <title>Group 7</title>
    <g id="Page-3" stroke="none" stroke-width="1" fill="none" fill-rule="evenodd" opacity="0.5">
        <g id="2" transform="translate(-50.000000, -464.000000)" fill="#52575A" fill-rule="nonzero">
            <g id="Group-7" transform="translate(50.000000, 464.000000)">
                <path d="M9.68591309,14.4988403 L9.68591309,13.2843018 C10.439209,13.211792 11.0343933,12.9580078 11.4714661,12.5229492 C11.9085388,12.0878906 12.1270752,11.5259399 12.1270752,10.8370972 C12.1270752,10.4302368 12.0585938,10.0817871 11.9216309,9.79174805 C11.784668,9.50170898 11.5953369,9.2479248 11.3536377,9.03039551 C11.1119385,8.81286621 10.8249207,8.61849976 10.4925842,8.44729614 C10.1602478,8.27609253 9.8067627,8.1109314 9.43212891,7.95181274 C9.05749512,7.79269409 8.7855835,7.6255188 8.61639404,7.45028687 C8.44720459,7.27505493 8.36260986,7.03839111 8.36260986,6.74029541 C8.36260986,6.44622803 8.43612671,6.21560669 8.5831604,6.0484314 C8.73019409,5.8812561 8.93664551,5.79766846 9.20251465,5.79766846 C9.50061035,5.79766846 9.73022461,5.91046143 9.89135742,6.13604736 C10.0524902,6.3616333 10.1330566,6.68389893 10.1330566,7.10284424 L10.1330566,7.10284424 L12.175415,7.10284424 C12.175415,6.33746338 11.9649353,5.70602417 11.5439758,5.20852661 C11.1230164,4.71102905 10.5439453,4.40789795 9.8067627,4.2991333 L9.8067627,4.2991333 L9.8067627,3 L8.8460083,3 L8.8460083,4.27496338 C8.08062744,4.34747314 7.46832275,4.60427856 7.00909424,5.04537964 C6.54986572,5.48648071 6.32025146,6.04742432 6.32025146,6.72821045 C6.32025146,7.1350708 6.38470459,7.48150635 6.51361084,7.76751709 C6.64251709,8.05352783 6.82781982,8.30529785 7.06951904,8.52282715 C7.31121826,8.74035645 7.59924316,8.93170166 7.93359375,9.09686279 C8.26794434,9.26202393 8.63250732,9.4251709 9.02728271,9.58630371 C9.42205811,9.74743652 9.69799805,9.91864014 9.85510254,10.0999146 C10.012207,10.281189 10.0907593,10.5309448 10.0907593,10.8491821 C10.0907593,11.1351929 10.012207,11.3597717 9.85510254,11.5229187 C9.69799805,11.6860657 9.48248291,11.7676392 9.20855713,11.7676392 C8.83392334,11.7676392 8.54489136,11.6477966 8.34146118,11.4081116 C8.13803101,11.1684265 8.03631592,10.8189697 8.03631592,10.3597412 L8.03631592,10.3597412 L6,10.3597412 C6,11.1936035 6.23464966,11.8653259 6.70394897,12.3749084 C7.17324829,12.884491 7.84698486,13.1856079 8.72515869,13.2782593 L8.72515869,13.2782593 L8.72515869,14.4988403 L9.68591309,14.4988403 Z" id="$"></path>
                <path d="M9,0 C13.9705627,0 18,4.02943725 18,9 C18,13.9705627 13.9705627,18 9,18 C4.02943725,18 0,13.9705627 0,9 C0,4.02943725 4.02943725,0 9,0 Z M9,1.575 C4.89928573,1.575 1.575,4.89928573 1.575,9 C1.575,13.1007143 4.89928573,16.425 9,16.425 C13.1007143,16.425 16.425,13.1007143 16.425,9 C16.425,4.89928573 13.1007143,1.575 9,1.575 Z" id="Oval"></path>
            </g>
        </g>
    </g>
</svg>