<?xml version="1.0" encoding="UTF-8"?>
<svg width="20px" height="20px" viewBox="0 0 20 20" version="1.1" xmlns="http://www.w3.org/2000/svg" xmlns:xlink="http://www.w3.org/1999/xlink">
    <title>checkbox</title>
    <g id="Page-3" stroke="none" stroke-width="1" fill="none" fill-rule="evenodd">
        <g id="1" transform="translate(-51.000000, -577.000000)">
            <g id="Group-12" transform="translate(30.000000, 82.000000)">
                <g id="checkbox" transform="translate(21.000000, 495.000000)">
                    <polygon id="Path" points="0 0 20 0 20 20 0 20"></polygon>
                    <path d="M15.8333333,2.5 L4.16666667,2.5 C3.24166667,2.5 2.5,3.25 2.5,4.16666667 L2.5,15.8333333 C2.5,16.75 3.24166667,17.5 4.16666667,17.5 L15.8333333,17.5 C16.7583333,17.5 17.5,16.75 17.5,15.8333333 L17.5,4.16666667 C17.5,3.25 16.7583333,2.5 15.8333333,2.5 Z M8.33333333,14.1666667 L4.16666667,10 L5.34166667,8.825 L8.33333333,11.8083333 L14.6583333,5.48333333 L15.8333333,6.66666667 L8.33333333,14.1666667 Z" id="Shape" fill="#377F4F" fill-rule="nonzero"></path>
                </g>
            </g>
        </g>
    </g>
</svg>