<?xml version="1.0" encoding="UTF-8"?>
<svg width="20px" height="20px" viewBox="0 0 20 20" version="1.1" xmlns="http://www.w3.org/2000/svg" xmlns:xlink="http://www.w3.org/1999/xlink">
    <title>checkbox</title>
    <g id="Page-2" stroke="none" stroke-width="1" fill="none" fill-rule="evenodd">
        <g id="1" transform="translate(-1091.000000, -607.000000)">
            <g id="checkbox" transform="translate(1091.000000, 607.000000)">
                <path d="M15.8333333,4.16666667 L15.8333333,15.8333333 L4.16666667,15.8333333 L4.16666667,4.16666667 L15.8333333,4.16666667 L15.8333333,4.16666667 Z M15.8333333,2.5 L4.16666667,2.5 C3.25,2.5 2.5,3.25 2.5,4.16666667 L2.5,15.8333333 C2.5,16.75 3.25,17.5 4.16666667,17.5 L15.8333333,17.5 C16.75,17.5 17.5,16.75 17.5,15.8333333 L17.5,4.16666667 C17.5,3.25 16.75,2.5 15.8333333,2.5 Z" id="Shape" fill="#BFC1C3" fill-rule="nonzero"></path>
                <polygon id="Path" points="0 0 20 0 20 20 0 20"></polygon>
                <polygon id="Path" points="0 0 20 0 20 20 0 20"></polygon>
            </g>
        </g>
    </g>
</svg>