<?xml version="1.0" encoding="UTF-8"?>
<svg width="111px" height="1050px" viewBox="0 0 111 1050" version="1.1" xmlns="http://www.w3.org/2000/svg" xmlns:xlink="http://www.w3.org/1999/xlink">
    <title>Main menu close</title>
    <defs>
        <rect id="path-1" x="0" y="0" width="100" height="1058"></rect>
        <filter x="-14.5%" y="-1.5%" width="131.0%" height="102.9%" filterUnits="objectBoundingBox" id="filter-2">
            <feOffset dx="1" dy="0" in="SourceAlpha" result="shadowOffsetOuter1"></feOffset>
            <feGaussianBlur stdDeviation="5" in="shadowOffsetOuter1" result="shadowBlurOuter1"></feGaussianBlur>
            <feColorMatrix values="0 0 0 0 0   0 0 0 0 0   0 0 0 0 0  0 0 0 0.0276834239 0" type="matrix" in="shadowBlurOuter1"></feColorMatrix>
        </filter>
        <rect id="path-3" x="0" y="0" width="100" height="64"></rect>
        <filter x="-1.0%" y="-1.6%" width="102.0%" height="106.2%" filterUnits="objectBoundingBox" id="filter-4">
            <feOffset dx="0" dy="2" in="SourceAlpha" result="shadowOffsetOuter1"></feOffset>
            <feColorMatrix values="0 0 0 0 0   0 0 0 0 0   0 0 0 0 0  0 0 0 0.0276834239 0" type="matrix" in="shadowOffsetOuter1"></feColorMatrix>
        </filter>
    </defs>
    <g id="Page-1" stroke="none" stroke-width="1" fill="none" fill-rule="evenodd">
        <g id="Group">
            <g id="Rectangle">
                <use fill="black" fill-opacity="1" filter="url(#filter-2)" xlink:href="#path-1"></use>
                <use fill="#FFFFFF" fill-rule="evenodd" xlink:href="#path-1"></use>
            </g>
            <line x1="40" y1="214" x2="60" y2="214" id="Line" stroke="#DBDFE9" stroke-linecap="square"></line>
            <g transform="translate(40.000000, 153.000000)" id="ic_events">
                <polygon id="Path" points="0 0 20 0 20 20 0 20"></polygon>
                <path d="M5.83333333,9.16666667 L7.5,9.16666667 L7.5,10.8333333 L5.83333333,10.8333333 L5.83333333,9.16666667 Z M17.5,5 L17.5,16.6666667 C17.5,17.5833333 16.75,18.3333333 15.8333333,18.3333333 L4.16666667,18.3333333 C3.24166667,18.3333333 2.5,17.5833333 2.5,16.6666667 L2.50833333,5 C2.50833333,4.08333333 3.24166667,3.33333333 4.16666667,3.33333333 L5,3.33333333 L5,1.66666667 L6.66666667,1.66666667 L6.66666667,3.33333333 L13.3333333,3.33333333 L13.3333333,1.66666667 L15,1.66666667 L15,3.33333333 L15.8333333,3.33333333 C16.75,3.33333333 17.5,4.08333333 17.5,5 Z M4.16666667,6.66666667 L15.8333333,6.66666667 L15.8333333,5 L4.16666667,5 L4.16666667,6.66666667 Z M15.8333333,16.6666667 L15.8333333,8.33333333 L4.16666667,8.33333333 L4.16666667,16.6666667 L15.8333333,16.6666667 Z M12.5,10.8333333 L14.1666667,10.8333333 L14.1666667,9.16666667 L12.5,9.16666667 L12.5,10.8333333 Z M9.16666667,10.8333333 L10.8333333,10.8333333 L10.8333333,9.16666667 L9.16666667,9.16666667 L9.16666667,10.8333333 Z" id="Shape" fill="#94979B" fill-rule="nonzero"></path>
            </g>
            <g transform="translate(40.000000, 93.000000)" id="ic_dash">
                <polygon id="Shape" points="0 0 20 0 20 20 0 20"></polygon>
                <path d="M2.5,10.8333333 L9.16666667,10.8333333 L9.16666667,2.5 L2.5,2.5 L2.5,10.8333333 Z M2.5,17.5 L9.16666667,17.5 L9.16666667,12.5 L2.5,12.5 L2.5,17.5 Z M10.8333333,17.5 L17.5,17.5 L17.5,9.16666667 L10.8333333,9.16666667 L10.8333333,17.5 Z M10.8333333,2.5 L10.8333333,7.5 L17.5,7.5 L17.5,2.5 L10.8333333,2.5 Z" id="Shape" fill="#3A84FF" fill-rule="nonzero"></path>
            </g>
            <g id="Rectangle">
                <use fill="black" fill-opacity="1" filter="url(#filter-4)" xlink:href="#path-3"></use>
                <use fill="#FFFFFF" fill-rule="evenodd" xlink:href="#path-3"></use>
            </g>
            <g id="ic_menu" transform="translate(40.000000, 22.000000)">
                <polygon id="Shape" points="0 0 20 0 20 20 0 20"></polygon>
                <path d="M2.5,15 L17.5,15 L17.5,13.3333333 L2.5,13.3333333 L2.5,15 Z M7.5,10.8333333 L17.5,10.8333333 L17.5,9.16666667 L7.5,9.16666667 L7.5,10.8333333 Z M2.5,5 L2.5,6.66666667 L17.5,6.66666667 L17.5,5 L2.5,5 Z" id="Shape" fill="#94979B" fill-rule="nonzero"></path>
            </g>
        </g>
    </g>
</svg>