<?xml version="1.0" encoding="UTF-8"?>
<svg width="22px" height="22px" viewBox="0 0 22 22" version="1.1" xmlns="http://www.w3.org/2000/svg" xmlns:xlink="http://www.w3.org/1999/xlink">
    <title>baseline-search-24px</title>
    <g id="Page-1" stroke="none" stroke-width="1" fill="none" fill-rule="evenodd">
        <g id="scr_1" transform="translate(-130.000000, -21.000000)">
            <g id="baseline-search-24px" transform="translate(130.000000, 21.000000)">
                <path d="M15.0924528,13.6773585 L14.3471698,13.6773585 L14.0830189,13.4226415 C15.0075472,12.3471698 15.5641509,10.9509434 15.5641509,9.43207547 C15.5641509,6.04528302 12.8188679,3.3 9.43207547,3.3 C6.04528302,3.3 3.3,6.04528302 3.3,9.43207547 C3.3,12.8188679 6.04528302,15.5641509 9.43207547,15.5641509 C10.9509434,15.5641509 12.3471698,15.0075472 13.4226415,14.0830189 L13.6773585,14.3471698 L13.6773585,15.0924528 L18.3943396,19.8 L19.8,18.3943396 L15.0924528,13.6773585 Z M9.43207547,13.6773585 C7.08301887,13.6773585 5.18679245,11.7811321 5.18679245,9.43207547 C5.18679245,7.08301887 7.08301887,5.18679245 9.43207547,5.18679245 C11.7811321,5.18679245 13.6773585,7.08301887 13.6773585,9.43207547 C13.6773585,11.7811321 11.7811321,13.6773585 9.43207547,13.6773585 Z" id="Shape" fill="#94979B" fill-rule="nonzero"></path>
                <polygon id="Shape" points="0 0 22 0 22 22 0 22"></polygon>
            </g>
        </g>
    </g>
</svg>