<?xml version="1.0" encoding="UTF-8"?>
<svg width="14px" height="14px" viewBox="0 0 14 14" version="1.1" xmlns="http://www.w3.org/2000/svg" xmlns:xlink="http://www.w3.org/1999/xlink">
    <title>ic_view_map</title>
    <g id="Page-3" stroke="none" stroke-width="1" fill="none" fill-rule="evenodd" opacity="0.5">
        <g id="2" transform="translate(-52.000000, -169.000000)" fill="#52575A" fill-rule="nonzero">
            <g id="Group-4" transform="translate(30.000000, 156.000000)">
                <g id="ic_view_map" transform="translate(22.000000, 13.000000)">
                    <path d="M13.6111111,0 L13.4866667,0.0233333333 L9.33333333,1.63333333 L4.66666667,0 L0.28,1.47777778 C0.116666667,1.53222222 0,1.67222222 0,1.85111111 L0,13.6111111 C0,13.8288889 0.171111111,14 0.388888889,14 L0.513333333,13.9766667 L4.66666667,12.3666667 L9.33333333,14 L13.72,12.5222222 C13.8833333,12.4677778 14,12.3277778 14,12.1488889 L14,0.388888889 C14,0.171111111 13.8288889,0 13.6111111,0 Z M9.33333333,12.4444444 L4.66666667,10.8033333 L4.66666667,1.55555556 L9.33333333,3.19666667 L9.33333333,12.4444444 Z" id="Shape"></path>
                </g>
            </g>
        </g>
    </g>
</svg>