<?xml version="1.0" encoding="UTF-8"?>
<svg width="25px" height="25px" viewBox="0 0 25 25" version="1.1" xmlns="http://www.w3.org/2000/svg" xmlns:xlink="http://www.w3.org/1999/xlink">
    <title>Shape</title>
    <defs>
        <filter x="-70.6%" y="-70.6%" width="241.2%" height="241.2%" filterUnits="objectBoundingBox" id="filter-1">
            <feOffset dx="0" dy="2" in="SourceAlpha" result="shadowOffsetOuter1"></feOffset>
            <feGaussianBlur stdDeviation="2" in="shadowOffsetOuter1" result="shadowBlurOuter1"></feGaussianBlur>
            <feColorMatrix values="0 0 0 0 0   0 0 0 0 0   0 0 0 0 0  0 0 0 0.5 0" type="matrix" in="shadowBlurOuter1" result="shadowMatrixOuter1"></feColorMatrix>
            <feMerge>
                <feMergeNode in="shadowMatrixOuter1"></feMergeNode>
                <feMergeNode in="SourceGraphic"></feMergeNode>
            </feMerge>
        </filter>
    </defs>
    <g id="Page-3" stroke="none" stroke-width="1" fill="none" fill-rule="evenodd" opacity="0.5">
        <g id="2" transform="translate(-47.000000, -315.000000)" fill="#52575A" fill-rule="nonzero">
            <g id="ic_speed" filter="url(#filter-1)" transform="translate(51.000000, 317.000000)">
                <g id="Shape">
                    <path d="M7.33333333,12.8333333 C7.33333333,13.3375 7.74583333,13.75 8.25,13.75 C8.75416667,13.75 9.16666667,13.3375 9.16666667,12.8333333 C9.16666667,12.3291667 8.75416667,11.9166667 8.25,11.9166667 C7.74583333,11.9166667 7.33333333,12.3291667 7.33333333,12.8333333 Z M7.33333333,0 L7.33333333,3.66666667 L9.16666667,3.66666667 L9.16666667,1.90666667 C12.2741667,2.35583333 14.6666667,5.01416667 14.6666667,8.25 C14.6666667,11.7975 11.7975,14.6666667 8.25,14.6666667 C4.7025,14.6666667 1.83333333,11.7975 1.83333333,8.25 C1.83333333,6.71 2.37416667,5.29833333 3.28166667,4.19833333 L8.25,9.16666667 L9.5425,7.87416667 L3.30916667,1.64083333 L3.30916667,1.65916667 C1.30166667,3.1625 0,5.54583333 0,8.25 C0,12.8058333 3.685,16.5 8.25,16.5 C12.8058333,16.5 16.5,12.8058333 16.5,8.25 C16.5,3.69416667 12.8058333,0 8.25,0 L7.33333333,0 Z M13.75,8.25 C13.75,7.74583333 13.3375,7.33333333 12.8333333,7.33333333 C12.3291667,7.33333333 11.9166667,7.74583333 11.9166667,8.25 C11.9166667,8.75416667 12.3291667,9.16666667 12.8333333,9.16666667 C13.3375,9.16666667 13.75,8.75416667 13.75,8.25 Z M2.75,8.25 C2.75,8.75416667 3.1625,9.16666667 3.66666667,9.16666667 C4.17083333,9.16666667 4.58333333,8.75416667 4.58333333,8.25 C4.58333333,7.74583333 4.17083333,7.33333333 3.66666667,7.33333333 C3.1625,7.33333333 2.75,7.74583333 2.75,8.25 Z"></path>
                </g>
            </g>
        </g>
    </g>
</svg>